Coordinates
version=1
nRows=9
nColumns=36
inDegrees=yes

Units are S.I. units (second, meters, Newtons, ...)
If the header above contains a line with 'inDegrees', this indicates whether rotational values are in degrees (yes) or radians (no).

endheader
time	pelvis_tilt	pelvis_list	pelvis_rotation	pelvis_tx	pelvis_ty	pelvis_tz	hip_flexion_r	hip_adduction_r	hip_rotation_r	knee_angle_r	knee_angle_r_beta	ankle_angle_r	subtalar_angle_r	mtp_angle_r	hip_flexion_l	hip_adduction_l	hip_rotation_l	knee_angle_l	knee_angle_l_beta	ankle_angle_l	subtalar_angle_l	mtp_angle_l	lumbar_extension	lumbar_bending	lumbar_rotation	arm_flex_r	arm_add_r	arm_rot_r	elbow_flex_r	pro_sup_r	arm_flex_l	arm_add_l	arm_rot_l	elbow_flex_l	pro_sup_l
      2.80000000	    -17.19863073	      3.66866275	     -5.55483773	      1.92702089	      0.94195197	      0.10965603	     47.68298240	     -6.65547293	     -0.82906280	     41.13353189	      0.71791556	     13.85668176	     -6.59183431	     -7.49999987	     44.17251362	     -2.33336218	     -2.52733961	     40.67106154	      0.70984393	     12.66730549	     -5.45023010	     -7.49999987	    -21.31390835	      0.06394075	      1.97399026	     26.03200219	    -10.93544508	      4.82081592	     17.03707202	     69.49878241	     25.51396111	    -12.05504822	     19.03172072	     20.93716943	     81.87137430
      2.81666670	    -16.80118470	      3.36342885	     -5.57506306	      1.92595211	      0.95770151	      0.11068975	     42.79933068	     -6.30129152	     -1.86800747	     32.80341097	      0.57252753	      9.79885688	     -5.66444780	     -7.49999987	     39.59900893	     -2.24045185	     -2.58805307	     32.76581432	      0.57187134	      8.27326772	     -4.47610275	     -7.49999987	    -21.02285626	      0.24746464	      1.76476489	     25.39355432	    -10.30569349	      4.46003166	     17.09066348	     70.14484728	     27.10788772	    -11.26071716	     20.59508491	     20.87864406	     85.33491852
      2.83333330	    -16.04849632	      3.05583358	     -5.70423575	      1.93316347	      0.97262974	      0.11194698	     37.27190496	     -5.70060562	     -2.38789991	     24.34991964	      0.42498627	      6.57029463	     -5.10414231	     -7.49999987	     34.24532771	     -2.26587368	     -2.96223928	     24.60214376	      0.42938841	      4.41118741	     -3.21992180	     -7.49999987	    -20.52199126	      0.54716230	      1.30269899	     24.57944057	     -9.46331437	      4.38593157	     16.62602338	     70.29524422	     27.55941815	    -10.45447074	     20.26702872	     20.67913672	     85.39186025
      2.85000000	    -15.13345001	      2.72898992	     -5.75803077	      1.93977684	      0.98100671	      0.11426449	     31.80746105	     -5.06535415	     -2.36174759	     16.73422675	      0.29206735	      3.81626639	     -4.53749154	     -7.49999987	     28.99222924	     -2.30661042	     -3.21639218	     17.34865088	      0.30279108	      1.82007936	     -1.56610677	     -7.49999987	    -19.15480920	      0.53602122	      0.66943869	     23.08038351	     -8.54116059	      4.19850597	     16.10616630	     70.93162449	     27.49443657	     -9.76237805	     20.38796043	     20.50591807	     86.70378839
      2.86666670	    -14.87581379	      2.57770262	     -5.75007843	      1.93714442	      0.98941919	      0.11715007	     28.04741332	     -4.46536567	     -1.47179021	     10.68964123	      0.18656944	      1.35120429	     -4.56612928	     -7.49999987	     25.37392663	     -2.36978504	     -3.36347006	     11.61487559	      0.20271782	      0.51721374	      0.60283292	     -7.49999987	    -17.10659612	      0.24528349	      0.06660891	     21.39915984	     -7.78281772	      3.67578492	     15.78261604	     71.16881118	     26.99842198	     -9.39162826	     20.75635545	     20.60162100	     87.19208362
      2.88333330	    -15.36162753	      2.57441891	     -5.58458686	      1.94135760	      0.99197489	      0.11485947	     25.92386034	     -4.20310305	     -1.10175478	      6.25629977	      0.10919303	     -0.41625479	     -4.08549663	     -7.49999987	     23.21261707	     -2.29486213	     -3.37551362	      7.20846495	      0.12581145	     -0.23119623	      2.27840939	     -7.49999987	    -14.02116991	     -0.05338539	     -0.69816276	     19.51916406	     -7.30192815	      3.43207712	     15.34657141	     71.32212836	     26.07554100	     -8.85924952	     21.21889612	     20.88139495	     87.48987463
      2.90000000	    -15.51527041	      2.63342821	     -5.59907949	      1.94173362	      0.99230812	      0.11558503	     24.15223068	     -4.03130804	     -0.51399422	      2.85778202	      0.04987771	     -1.79167440	     -4.48698018	     -7.49999987	     21.36465597	     -2.26971038	     -3.76901270	      4.11380568	      0.07179945	      0.17064895	      4.63113515	     -7.49999987	    -11.60246688	     -0.39391327	     -1.23770109	     17.86881452	     -6.97328517	      2.60986229	     15.37272973	     71.96963880	     25.04553218	     -8.67837587	     22.25093115	     22.04826636	     88.25968713
      2.91666670	    -15.73034204	      2.66459909	     -5.70748414	      1.94768214	      0.99629613	      0.11659700	     23.06827100	     -3.86287993	     -0.56111933	      1.02925398	      0.01796387	     -2.53506090	     -4.43795469	     -7.49999987	     19.98909088	     -2.28526902	     -3.45485326	      2.01476796	      0.03516433	      0.55893726	      5.31685405	     -7.49999987	     -8.67544385	     -0.50980480	     -1.65268519	     16.11607361	     -6.96149180	      2.53696779	     15.04954058	     72.16734634	     23.72986759	     -8.20810792	     22.54671201	     22.32171532	     88.40607722
      2.93333330	    -16.08180843	      2.76043974	     -6.12783809	      1.94692883	      1.00246145	      0.11712285	     22.88681891	     -3.72822280	     -0.12244389	      0.57947432	      0.01011373	     -3.05291388	     -4.81071063	     -7.49999987	     19.34349529	     -2.45021872	     -3.82379926	      1.14770724	      0.02003127	      1.66725951	      6.98997547	     -7.49999987	     -5.89064884	     -0.68885542	     -1.92229058	     14.57707541	     -7.04355032	      2.32291019	     15.17504661	     72.94233105	     22.26520969	     -8.20263067	     23.36120616	     24.06567666	     88.82035292
